<?xml version="1.0" encoding="utf-8"?>
<!-- Generator: Adobe Illustrator 25.4.1, SVG Export Plug-In . SVG Version: 6.00 Build 0)  -->
<svg version="1.1" id="Layer_1" xmlns="http://www.w3.org/2000/svg" xmlns:xlink="http://www.w3.org/1999/xlink" x="0px" y="0px"
	 viewBox="0 0 132 73.6" style="enable-background:new 0 0 132 73.6;" xml:space="preserve">
<g>
	<path d="M0,72.7L24,0h27l24,72.7H53.7l-4.2-13.9h-24l-4.2,13.9H0z M45,44l-7.2-24h-0.6L30,44H45z"/>
	<path d="M79.7,57.7c0-12,8.8-16.5,20-17.3c9.2-0.7,12.6-1.7,12.6-4.8v-0.1c0-2.8-2.4-4.4-5.8-4.4c-3.7,0-6.2,1.6-6.7,5h-18
		c0.7-9.9,8.7-18.5,25-18.5c15.6,0,25.1,7.8,25.1,17.9v37.4h-18.3V65h-0.4c-3.3,6.1-8.7,8.5-15.8,8.5C87,73.6,79.7,68.5,79.7,57.7z
		 M112.5,53.4v-4.5c-2.1,0.9-4.7,1.5-7.8,2c-4.5,0.7-6.5,2.9-6.5,5.7c0,3.1,2.3,4.7,5.7,4.7C108.3,61.2,112.5,58.4,112.5,53.4z"/>
</g>
</svg>
