<?xml version="1.0" encoding="utf-8"?>
<!-- Generator: Adobe Illustrator 25.4.1, SVG Export Plug-In . SVG Version: 6.00 Build 0)  -->
<svg version="1.1" xmlns="http://www.w3.org/2000/svg" xmlns:xlink="http://www.w3.org/1999/xlink" x="0px" y="0px"
	 viewBox="0 0 8660.6 2457.4" style="enable-background:new 0 0 8660.6 2457.4;" xml:space="preserve">
<style type="text/css">
	.st0{fill:url(#SVGID_1_);}
	.st1{fill:url(#SVGID_00000049189023461909365010000008253935812853761443_);}
	.st2{fill:#41B883;}
	.st3{fill:#35495E;}
	.st4{fill:#06B6D4;}
</style>
<g id="Layer_1">

		<linearGradient id="SVGID_1_" gradientUnits="userSpaceOnUse" x1="1084.8387" y1="1374.2155" x2="1085.4233" y2="1373.5078" gradientTransform="matrix(2454.3228 0 0 -2187.2434 -2661984.5 3005754)">
		<stop  offset="0" style="stop-color:#41D1FF"/>
		<stop  offset="1" style="stop-color:#BD34FE"/>
	</linearGradient>
	<path class="st0" d="M2446.2,363.7L1293.3,2425.3c-23.8,42.6-85,42.8-109.1,0.5L8.4,363.9c-26.3-46.2,13.1-102.1,65.5-92.7
		L1228,477.5c7.4,1.3,14.9,1.3,22.3,0l1130-206C2432.4,262,2472.1,317.5,2446.2,363.7z"/>

		<linearGradient id="SVGID_00000150073251775584673160000004279986994780484491_" gradientUnits="userSpaceOnUse" x1="1084.5492" y1="1374.1104" x2="1084.6187" y2="1373.2426" gradientTransform="matrix(1125.4194 0 0 -2051.6592 -1219198.875 2819246.5)">
		<stop  offset="0" style="stop-color:#FFEA83"/>
		<stop  offset="8.299999e-02" style="stop-color:#FFDD35"/>
		<stop  offset="1" style="stop-color:#FFA800"/>
	</linearGradient>
	<path style="fill:url(#SVGID_00000150073251775584673160000004279986994780484491_);" d="M1777.8,0.6L924.6,167.8
		c-14,2.7-24.4,14.6-25.3,28.9l-52.5,886.4c-1,17.3,12.1,32.1,29.4,33.1c3,0.2,6-0.1,8.9-0.7l237.5-54.8
		c22.2-5.1,42.3,14.4,37.7,36.8l-70.6,345.6c-4.7,23.3,17.1,43.1,39.8,36.2l146.7-44.6c22.7-6.9,44.6,13,39.8,36.3L1204,2013.9
		c-7,34,38.1,52.5,57,23.4l12.6-19.4l695.2-1387.5c11.6-23.2-8.4-49.7-33.9-44.8l-244.5,47.2c-23,4.4-42.5-17-36-39.4L1813.9,40
		C1820.4,17.5,1800.8-3.9,1777.8,0.6L1777.8,0.6z"/>
</g>
<g id="Layer_2">
	<path class="st2" d="M4838.9,285.8h500L4089,2441.8l-1249.9-2156h956.2l293.7,500l287.5-500H4838.9z"/>
	<path class="st2" d="M2839.1,285.8l1249.9,2156l1249.9-2156h-500L4089,1579.4L3332.8,285.8H2839.1z"/>
	<path class="st3" d="M3332.8,285.8L4089,1585.6l749.9-1299.9h-462.5l-287.5,500l-293.7-500H3332.8z"/>
	<path class="st4" d="M7056.9,401.8c-427.7,0-695,213.8-801.9,641.3c160.4-213.8,347.5-293.9,561.3-240.5
		c122,30.5,209.2,119,305.8,216.9c157.2,159.6,339.2,344.2,736.7,344.2c427.6,0,695-213.8,801.9-641.3
		c-160.4,213.8-347.5,294-561.3,240.5c-122-30.5-209.2-119-305.7-216.9C7636.4,586.4,7454.4,401.8,7056.9,401.8L7056.9,401.8z
		 M6255,1363.8c-427.6,0-695,213.8-801.9,641.3c160.4-213.8,347.5-294,561.3-240.5c122,30.5,209.2,119,305.7,216.9
		c157.2,159.6,339.2,344.3,736.7,344.3c427.7,0,695-213.8,801.9-641.3c-160.4,213.8-347.5,294-561.3,240.5
		c-122-30.4-209.2-119-305.8-216.9C6834.5,1548.5,6652.5,1363.8,6255,1363.8L6255,1363.8z"/>
</g>
</svg>
